<?xml version="1.0" encoding="UTF-8"?>
<svg id="_레이어_1" data-name="레이어_1" xmlns="http://www.w3.org/2000/svg" version="1.1" viewBox="0 0 24 24">
  <!-- Generator: Adobe Illustrator 29.5.1, SVG Export Plug-In . SVG Version: 2.1.0 Build 141)  -->
  <defs>
    <style>
      .st0 {
        fill: #fff;
      }
    </style>
  </defs>
  <path class="st0" d="M8.3,3.1c-1,0-1.6.2-2.2.4-.6.2-1.1.5-1.6,1-.5.5-.8,1-1,1.6-.2.6-.4,1.2-.4,2.2,0,1,0,1.3,0,3.7,0,2.4,0,2.8,0,3.7,0,1,.2,1.6.4,2.2.2.6.5,1.1,1,1.6.5.5,1,.8,1.6,1,.6.2,1.2.4,2.2.4,1,0,1.3,0,3.7,0,2.4,0,2.8,0,3.7,0,1,0,1.6-.2,2.2-.4.6-.2,1.1-.5,1.6-1s.8-1,1-1.6c.2-.6.4-1.2.4-2.2,0-1,0-1.3,0-3.7,0-2.4,0-2.8,0-3.7,0-1-.2-1.6-.4-2.2-.2-.6-.5-1.1-1-1.6-.5-.5-1-.8-1.6-1-.6-.2-1.2-.4-2.2-.4-1,0-1.3,0-3.7,0-2.4,0-2.8,0-3.7,0ZM8.4,19.3c-.9,0-1.4-.2-1.7-.3-.4-.2-.7-.4-1-.7-.3-.3-.5-.6-.7-1-.1-.3-.3-.8-.3-1.7,0-.9,0-1.2,0-3.6,0-2.4,0-2.7,0-3.6,0-.9.2-1.4.3-1.7.2-.4.4-.7.7-1,.3-.3.6-.5,1-.7.3-.1.8-.3,1.7-.3.9,0,1.2,0,3.6,0,2.4,0,2.7,0,3.6,0,.9,0,1.4.2,1.7.3.4.2.7.4,1,.7.3.3.5.6.7,1,.1.3.3.8.3,1.7,0,.9,0,1.2,0,3.6,0,2.4,0,2.7,0,3.6,0,.9-.2,1.4-.3,1.7-.2.4-.4.7-.7,1-.3.3-.6.5-1,.7-.3.1-.8.3-1.7.3-.9,0-1.2,0-3.6,0-2.4,0-2.7,0-3.6,0M15.7,7.2c0,.2,0,.4.2.6.1.2.3.3.5.4.2,0,.4.1.6,0,.2,0,.4-.1.6-.3.2-.2.3-.3.3-.6,0-.2,0-.4,0-.6,0-.2-.2-.4-.4-.5-.2-.1-.4-.2-.6-.2-.3,0-.6.1-.8.3-.2.2-.3.5-.3.8ZM7.4,12c0,2.6,2.1,4.6,4.6,4.6,2.6,0,4.6-2.1,4.6-4.6,0-2.6-2.1-4.6-4.6-4.6-2.6,0-4.6,2.1-4.6,4.6ZM9,12c0-.6.2-1.2.5-1.7.3-.5.8-.9,1.3-1.1.5-.2,1.2-.3,1.7-.2.6.1,1.1.4,1.5.8.4.4.7,1,.8,1.5.1.6,0,1.2-.2,1.7-.2.5-.6,1-1.1,1.3-.5.3-1.1.5-1.7.5-.4,0-.8,0-1.1-.2-.4-.2-.7-.4-1-.6-.3-.3-.5-.6-.7-1-.2-.4-.2-.8-.2-1.1Z"/>
</svg>